<svg xmlns="http://www.w3.org/2000/svg" viewBox="0 0 24 24"><path fill="#303C42" d="M23.908 15.12l-4.07-13.563C19.5.422 18.265-.25 17.12.092l-5.157 1.547A2 2 0 0 0 10 0C8.897 0 8 .897 8 2H2C.897 2 0 2.897 0 4v15c0 1.103.897 2 2 2h4.422c.394.613 1.07 1 1.83 1 .214 0 .425-.031.628-.092l13.563-4.07A2.17 2.17 0 0 0 24 15.749a2.18 2.18 0 0 0-.092-.628z"/><path fill="#FFCA28" d="M1 19V4c0-.551.449-1 1-1h5.427l-3.87 1.161A2.17 2.17 0 0 0 2 6.253c0 .213.031.424.092.627L6.028 20H2c-.551 0-1-.449-1-1z"/><path fill="#FFF" d="M22.156 16.88L8.593 20.95a1.209 1.209 0 0 1-1.474-.794L3.05 6.593a1.191 1.191 0 0 1 .794-1.474l4.995-1.498C9.166 3.857 9.565 4 10 4c.18 0 .35-.031.515-.076l.569.853a.5.5 0 1 0 .832-.554l-.526-.79a2 2 0 0 0 .473-.72l5.543-1.663a1.21 1.21 0 0 1 1.475.794l4.07 13.563a1.191 1.191 0 0 1-.794 1.474z"/><linearGradient id="a" x1="10.115" x2="23.503" y1="2.344" y2="15.732" gradientUnits="userSpaceOnUse"><stop offset="0" stop-opacity=".1"/><stop offset="1" stop-opacity="0"/></linearGradient><path fill="url(#a)" d="M22.156 16.88a1.191 1.191 0 0 0 .794-1.473l-1.192-3.974-8.991-8.991-.904.271a2 2 0 0 1-.473.72l.526.79a.5.5 0 1 1-.832.554l-.569-.853A1.976 1.976 0 0 1 10 4c-.435 0-.834-.143-1.162-.379L22.11 16.894l.045-.013z"/><path fill="#303C42" d="M20.379 19.168C19.989 17.344 18.385 16 16.5 16c-1.425 0-2.736.78-3.446 2.006-.019 0-.036-.006-.054-.006-1.654 0-3 1.346-3 3s1.346 3 3 3h6.5c1.378 0 2.5-1.122 2.5-2.5a2.498 2.498 0 0 0-1.621-2.332z"/><path fill="#F2F2F2" d="M19.5 23H13c-1.103 0-2-.897-2-2a2.002 2.002 0 0 1 3.6-1.2.5.5 0 1 0 .8-.6 2.968 2.968 0 0 0-1.3-.974A2.997 2.997 0 0 1 16.5 17c1.293 0 2.416.843 2.82 2.036a.497.497 0 0 0 .18.964c.827 0 1.5.673 1.5 1.5s-.673 1.5-1.5 1.5z"/><path d="M19.93 20.07c.041.137.07.28.07.43 0 .827-.673 1.5-1.5 1.5H12c-.293 0-.569-.067-.82-.18A2 2 0 0 0 13 23h6.5c.827 0 1.5-.673 1.5-1.5 0-.677-.453-1.244-1.07-1.43z" opacity=".1"/><circle cx="10" cy="2" r="1" fill="#FF6F00"/><path d="M10.408 1.092a.985.985 0 0 1 .092.408c0 .551-.449 1-1 1a.985.985 0 0 1-.408-.092A.999.999 0 0 0 10 3c.551 0 1-.449 1-1a.999.999 0 0 0-.592-.908z" opacity=".1"/><linearGradient id="b" x1="-.894" x2="24.261" y1="5.475" y2="17.205" gradientUnits="userSpaceOnUse"><stop offset="0" stop-color="#FFF" stop-opacity=".2"/><stop offset="1" stop-color="#FFF" stop-opacity="0"/></linearGradient><path fill="url(#b)" d="M23.908 15.12l-4.07-13.563C19.5.422 18.265-.25 17.12.092l-5.157 1.547A2 2 0 0 0 10 0C8.897 0 8 .897 8 2H2C.897 2 0 2.897 0 4v15c0 1.103.897 2 2 2h4.422c.394.613 1.07 1 1.83 1 .214 0 .425-.031.628-.092l1.176-.353A3.001 3.001 0 0 0 13 24h6.5c1.378 0 2.5-1.122 2.5-2.5a2.498 2.498 0 0 0-1.621-2.332 4.033 4.033 0 0 0-.199-.65l2.263-.68A2.17 2.17 0 0 0 24 15.749a2.18 2.18 0 0 0-.092-.628z"/></svg>